<?xml version="1.0" standalone="no"?>
<!DOCTYPE svg PUBLIC "-//W3C//DTD SVG 20010904//EN"
 "http://www.w3.org/TR/2001/REC-SVG-20010904/DTD/svg10.dtd">
<svg version="1.0" xmlns="http://www.w3.org/2000/svg"
 width="512.000000pt" height="512.000000pt" viewBox="0 0 512.000000 512.000000"
 preserveAspectRatio="xMidYMid meet">

<g transform="translate(0.000000,512.000000) scale(0.100000,-0.100000)"
fill="#000000" stroke="none">
<path d="M3365 5113 c-70 -6 -207 -34 -290 -57 -263 -76 -488 -209 -685 -406
-157 -158 -268 -324 -351 -527 -60 -146 -85 -255 -129 -571 -82 -574 -152
-778 -339 -987 -133 -148 -174 -241 -173 -390 0 -49 7 -110 15 -135 l14 -45
-285 -286 -285 -287 -59 43 c-305 225 -737 44 -791 -332 -26 -180 49 -356 201
-470 82 -61 149 -84 263 -90 l96 -6 6 -96 c6 -114 29 -181 90 -263 114 -152
290 -227 470 -201 376 54 557 486 332 791 l-43 59 287 285 286 285 45 -14 c64
-21 202 -20 275 1 82 24 134 56 229 141 97 85 148 121 241 167 157 79 360 130
700 178 325 45 399 59 520 97 567 180 975 647 1092 1248 27 138 24 425 -5 571
-73 365 -264 695 -535 923 -334 280 -758 413 -1192 374z m-1779 -3329 c26 -19
64 -44 85 -55 24 -12 46 -34 58 -58 11 -21 36 -60 56 -86 l37 -48 -326 -326
c-399 -399 -379 -356 -221 -501 84 -77 112 -219 64 -330 -49 -113 -178 -189
-300 -176 -156 16 -269 141 -269 297 0 73 21 130 70 194 51 66 54 112 11 156
-44 43 -90 40 -156 -11 -64 -49 -121 -70 -194 -70 -156 0 -281 113 -297 269
-13 122 63 251 176 300 111 48 253 20 330 -64 96 -105 96 -105 136 -105 37 0
50 12 364 325 179 179 326 325 327 325 2 0 24 -16 49 -36z"/>
</g>
</svg>
